# xmcd
#
# Track frame offsets:
#	300
#	11786
#	23813
#	35988
#	48050
#	60008
#	74216
#	85342
#	98944
#	112899
#	127918
#	141659
#	154092
#	165851
#	178811
#	192909
#	204680
#
# Disc length: 2896 seconds
#
# Revision: 0
# Processed by: cddbd v1.5.2PL0 Copyright (c) Steve Scherf et al.
# Submitted via: audiograbber 1.83.01
#
DISCID=ed0b4c11
DTITLE=Patsy Cline - Vol 2 CCB032
DYEAR=1900
DGENRE=Country
TTITLE0=How Can I Face Tomorrow
TTITLE1=I Can See An Angel
TTITLE2=I Cant Forget You
TTITLE3=I Cried All The Way To The Altar
TTITLE4=I Don't Wanta
TTITLE5=I Fall To Pieces
TTITLE6=I Love You So Much That It Hurts
TTITLE7=If I Could See The World
TTITLE8=Imagine That
TTITLE9=In Care of the Blues
TTITLE10=Just a Closer Walk With Thee
TTITLE11=Just Out of Reach
TTITLE12=Leavin' On Your Mind
TTITLE13=Let the Teardrops Fall
TTITLE14=Life's Railway to Heaven
TTITLE15=Pick Me Up On Your Way Down
TTITLE16=Rose of San Antone
EXTD=Karoake Capitol
EXTT0=
EXTT1=
EXTT2=
EXTT3=
EXTT4=
EXTT5=
EXTT6=
EXTT7=
EXTT8=
EXTT9=
EXTT10=
EXTT11=
EXTT12=
EXTT13=
EXTT14=
EXTT15=
EXTT16=
PLAYORDER=
